<?xml version="1.0" encoding="UTF-8"?><svg id="Capa_1" xmlns="http://www.w3.org/2000/svg" viewBox="0 0 242.13 35.63"><defs><style>.cls-1,.cls-2{fill:#72603f;stroke-width:0px;}.cls-2{fill-rule:evenodd;}</style></defs><path class="cls-2" d="M114.95,31.76c.39-.29,1.59-1.71,3.17-2.95,3.41-2.66,7.76-5.27,8.74-9.69.87-3.99-1.23-7.06-3.92-8.17-4.83-2.01-6.96,2.41-7.99,3.38-.43-.41-.82-1.13-1.3-1.67-.41-.46-1.13-1.07-1.71-1.43-6.14-3.72-14.91,6.57-3.69,14.84l5.14,4.09c.56.55,1.14,1.26,1.55,1.6h.01Z"/><path class="cls-1" d="M3.14,5.69c-.09.74-.16,1.48-.19,2.23-.03.74.02,1.46.14,2.16.12.7.33,1.36.63,1.99.29.63.7,1.23,1.23,1.79.09-.22.19-.42.3-.63.11-.2.22-.41.35-.63,1.05-1.79,2.3-3.46,3.76-5.01,1.45-1.55,3.11-2.81,4.96-3.8.83-.43,1.79-.83,2.85-1.18,1.07-.35,2.16-.59,3.29-.7,1.13-.11,2.23-.07,3.32.12,1.08.19,2.07.59,2.97,1.21.87.62,1.48,1.35,1.83,2.2s.52,1.74.49,2.67c-.03.93-.22,1.85-.56,2.76s-.79,1.74-1.35,2.48c-1.27,1.64-2.84,2.88-4.71,3.73s-3.78,1.46-5.73,1.83c-1.42.28-2.88.43-4.38.46-1.5.03-2.96-.14-4.38-.51l-.79,1.81c-.34.77-.66,1.61-.95,2.5-.29.9-.52,1.8-.67,2.71s-.2,1.82-.14,2.71c.06.9.28,1.75.65,2.55.25.53.56.97.95,1.35s.81.68,1.28.93c.9.46,1.86.6,2.88.42,1.02-.19,1.95-.53,2.78-1.02.8-.46,1.53-1.04,2.18-1.74.65-.7,1.17-1.46,1.55-2.3.39-.83.63-1.72.74-2.64.11-.93.02-1.86-.26-2.78-.06-.22,0-.29.19-.21.19.08.31.13.37.16,1.24.77,1.99,1.89,2.27,3.34.19,1.08.07,2.16-.35,3.22-.42,1.07-1.01,2-1.79,2.81-.71.71-1.54,1.31-2.48,1.79-.94.48-1.94.81-2.99,1-1.05.19-2.1.21-3.15.07-1.05-.14-2.03-.44-2.92-.9-.77-.4-1.45-.91-2.04-1.53s-1.09-1.3-1.51-2.04-.76-1.52-1.02-2.34-.46-1.65-.58-2.48c-.25-1.61-.22-3.22.07-4.82.29-1.61.75-3.17,1.37-4.69-.74-.59-1.41-1.31-2.02-2.18-.6-.87-1.04-1.77-1.32-2.71-.28-.94-.33-1.89-.16-2.83.17-.94.66-1.82,1.46-2.62.03-.03.14-.12.32-.26.18-.14.37-.26.56-.37.19-.11.35-.19.51-.23.15-.05.22,0,.19.16h0ZM19.01,5.83c-2.1,1.18-3.92,2.67-5.45,4.5s-2.96,3.83-4.29,6.03c1.08.34,2.18.56,3.29.67s2.2.13,3.25.07c1.48-.09,2.98-.36,4.48-.81,1.5-.45,2.85-1.12,4.06-2.02.68-.53,1.28-1.11,1.79-1.74s.92-1.35,1.23-2.16c.28-.77.41-1.61.39-2.5-.02-.9-.29-1.69-.81-2.37-.46-.59-1.04-.96-1.74-1.11s-1.41-.17-2.16-.05c-.74.12-1.47.33-2.18.63-.71.29-1.33.58-1.86.86Z"/><path class="cls-1" d="M46.42,25.45c.09-.25.22-.41.39-.49s.32-.09.44-.05c.12.05.22.15.3.32.08.17.07.38-.02.63-.87,2.32-2.05,4.17-3.55,5.57-1.5,1.39-3.08,2.09-4.75,2.09-1.18,0-2.09-.29-2.74-.86s-1-1.48-1.07-2.71c-.71.9-1.56,1.72-2.55,2.46-.99.74-2.13,1.11-3.43,1.11s-2.42-.46-3.18-1.39-1.2-2.09-1.32-3.48c-.12-1.39.06-2.9.56-4.52s1.3-3.13,2.41-4.52,2.54-2.55,4.29-3.48,3.83-1.39,6.24-1.39c1.67,0,2.98.22,3.92.67s1.71,1.14,2.3,2.06c-.62,1.86-1.19,3.53-1.72,5.01-.22.65-.43,1.29-.65,1.92-.22.63-.42,1.21-.6,1.74-.19.53-.35.98-.49,1.37-.14.39-.22.64-.25.77-.4,1.11-.55,1.91-.44,2.39s.36.72.77.72c.25,0,.58-.1,1-.3.42-.2.86-.53,1.32-1,.46-.46.94-1.07,1.44-1.83.49-.76.96-1.69,1.39-2.81h0ZM39.32,16.82c-.06-.15-.2-.32-.42-.51-.22-.19-.54-.28-.97-.28-.9,0-1.76.38-2.57,1.14-.82.76-1.57,1.71-2.25,2.85s-1.26,2.39-1.74,3.73c-.48,1.35-.81,2.59-1,3.73s-.22,2.1-.09,2.85c.12.76.46,1.14,1.02,1.14.37,0,.73-.11,1.09-.32.36-.22.7-.51,1.02-.88.32-.37.64-.8.95-1.28.31-.48.59-.97.83-1.46.59-1.14,1.16-2.46,1.72-3.94,0,0,2.41-6.77,2.41-6.77Z"/><path class="cls-1" d="M60.57,25.45c.09-.25.22-.41.37-.49s.3-.09.44-.05.24.15.3.32c.06.17.05.38-.05.63-.87,2.32-2.05,4.17-3.55,5.57-1.5,1.39-3.08,2.09-4.75,2.09-.83,0-1.55-.15-2.13-.46-.59-.31-1.02-.79-1.3-1.44s-.39-1.48-.32-2.48c.06-1,.32-2.19.79-3.55l2.04-5.84c.19-.53.29-1.07.3-1.62.02-.56-.1-1.05-.35-1.48-.12-.22-.25-.41-.39-.58s-.27-.33-.39-.49l-.46-.46c-.15.56-.37,1.28-.65,2.16s-.58,1.83-.9,2.85-.67,2.04-1.02,3.06c-.36,1.02-.69,1.92-1,2.69-.16.37-.32.63-.51.77-.19.14-.34.18-.46.12s-.21-.21-.25-.44,0-.52.12-.86c.74-2.04,1.37-3.84,1.88-5.4.51-1.56.92-2.88,1.23-3.97.34-1.24.62-2.32.83-3.25.83.59,1.64,1.16,2.41,1.72.65.53,1.31,1.08,1.99,1.67.68.59,1.22,1.18,1.62,1.76.56.8.87,1.56.95,2.27.08.71-.05,1.55-.39,2.5l-1.9,5.52c-.4,1.11-.55,1.91-.44,2.39s.38.72.81.72c.25,0,.57-.1.97-.3s.83-.53,1.3-1c.46-.46.95-1.07,1.46-1.83s.98-1.69,1.41-2.81h-.01Z"/><path class="cls-1" d="M73.97,2.86c-1.58,4.58-2.98,8.69-4.22,12.34-.53,1.55-1.05,3.08-1.58,4.59-.53,1.52-1,2.88-1.41,4.1-.42,1.22-.77,2.23-1.04,3.01-.28.79-.43,1.25-.46,1.37-.4,1.11-.55,1.91-.44,2.39s.36.72.77.72c.25,0,.58-.1,1-.3.42-.2.86-.53,1.32-1,.46-.46.94-1.07,1.44-1.83.49-.76.96-1.69,1.39-2.81.09-.25.22-.41.37-.49s.3-.09.44-.05.24.15.3.32.05.38-.05.63c-.87,2.32-2.04,4.17-3.52,5.57-1.48,1.39-3.08,2.09-4.78,2.09-.83,0-1.55-.15-2.13-.46-.59-.31-1.02-.79-1.3-1.44s-.39-1.48-.32-2.48c.06-1,.32-2.19.79-3.55l6.35-18.37c.53-1.58,1.24-2.7,2.13-3.36.9-.66,2.18-1,3.85-1h1.11,0Z"/><path class="cls-1" d="M91.97,25.45c.09-.25.22-.41.39-.49s.32-.09.44-.05c.12.05.22.15.3.32s.07.38-.02.63c-.87,2.32-2.05,4.17-3.55,5.57-1.5,1.39-3.08,2.09-4.75,2.09-1.18,0-2.09-.29-2.74-.86s-1-1.48-1.07-2.71c-.71.9-1.56,1.72-2.55,2.46-.99.74-2.13,1.11-3.43,1.11s-2.42-.46-3.18-1.39-1.2-2.09-1.32-3.48.06-2.9.56-4.52,1.3-3.13,2.41-4.52,2.54-2.55,4.29-3.48,3.83-1.39,6.24-1.39c1.67,0,2.98.22,3.92.67.94.45,1.71,1.14,2.3,2.06-.62,1.86-1.19,3.53-1.72,5.01-.22.65-.43,1.29-.65,1.92-.22.63-.42,1.21-.6,1.74-.19.53-.35.98-.49,1.37-.14.39-.22.64-.25.77-.4,1.11-.55,1.91-.44,2.39s.36.72.77.72c.25,0,.58-.1,1-.3.42-.2.86-.53,1.32-1,.46-.46.94-1.07,1.44-1.83.49-.76.96-1.69,1.39-2.81,0,0-.01,0-.01,0ZM84.87,16.82c-.06-.15-.2-.32-.42-.51s-.54-.28-.97-.28c-.9,0-1.76.38-2.57,1.14-.82.76-1.57,1.71-2.25,2.85s-1.26,2.39-1.74,3.73c-.48,1.35-.81,2.59-1,3.73s-.22,2.1-.09,2.85c.12.76.46,1.14,1.02,1.14.37,0,.73-.11,1.09-.32.36-.22.7-.51,1.02-.88.32-.37.64-.8.95-1.28.31-.48.59-.97.83-1.46.59-1.14,1.16-2.46,1.72-3.94,0,0,2.41-6.77,2.41-6.77Z"/><path class="cls-1" d="M138.07,19.7c.34-.8.8-1.61,1.37-2.41.57-.8,1.21-1.53,1.92-2.18,0-1.21.22-2.38.67-3.52s1.04-2.21,1.79-3.2c.96-1.21,2.06-2.28,3.29-3.22,1.24-.94,2.57-1.75,3.99-2.41s2.9-1.18,4.43-1.55,3.05-.6,4.57-.7c1.58-.06,3.21.07,4.89.39s3.24.89,4.66,1.69c1.42.8,2.62,1.86,3.59,3.15.97,1.3,1.54,2.88,1.69,4.73.06.8,0,1.6-.16,2.39s-.42,1.55-.76,2.27c-.34.73-.77,1.41-1.28,2.04-.51.63-1.06,1.18-1.65,1.65-1.3,1.02-2.76,1.82-4.38,2.41-1.62.59-3.25.85-4.89.79-.77-.03-1.53-.16-2.27-.39s-1.41-.56-2-1c-.71,1.55-1.5,3.08-2.37,4.61s-1.89,2.98-3.06,4.34c-.68.77-1.48,1.51-2.41,2.2-.93.7-1.92,1.23-2.99,1.6s-2.17.53-3.32.46c-1.14-.06-2.24-.45-3.29-1.16-1.02-.65-1.79-1.51-2.3-2.57-.51-1.07-.81-2.2-.9-3.41s-.03-2.43.19-3.66c.22-1.24.54-2.35.97-3.34h.01ZM166.59,6.34c-.96.53-1.77,1.17-2.43,1.92-.67.76-1.28,1.58-1.83,2.48-.62,1.02-1.17,2.07-1.67,3.15s-1.01,2.16-1.53,3.25c-.16.4-.32.8-.49,1.18-.17.39-.35.77-.53,1.14.34.25.72.43,1.14.56.42.12.84.22,1.28.28,1.3.15,2.52.03,3.66-.37,1.14-.4,2.12-1.1,2.92-2.09.77-.96,1.34-2.02,1.72-3.2.37-1.17.59-2.37.65-3.57.06-1.3-.08-2.51-.42-3.64s-1-2.13-1.99-2.99c-.93-.83-1.98-1.41-3.15-1.74s-2.37-.52-3.57-.58c-2.23-.09-4.41.27-6.54,1.09-2.13.82-3.97,2.03-5.52,3.64-.77.8-1.44,1.72-1.99,2.76-.56,1.04-.96,2.11-1.21,3.22,1.17-.4,2.33-.51,3.48-.32.49.06.97.19,1.44.37s.88.43,1.25.74c.06.06.18.18.35.35.17.17.25.32.25.44,0,.19-.1.24-.3.16s-.47-.13-.81-.16c-.99-.06-1.99.02-3.01.23-1.02.22-1.98.57-2.88,1.07.06,1.08.3,2.11.72,3.08s1.07,1.85,1.97,2.62c.12.09.15.17.07.23-.08.06-.19.11-.32.14-.14.03-.28.05-.42.07s-.22.02-.25.02c-.43,0-.84-.06-1.23-.19-.39-.12-.75-.29-1.09-.51-.59-.34-1.08-.78-1.48-1.32-.4-.54-.73-1.14-.97-1.79-1.21,1.3-2.12,2.81-2.74,4.52-.62,1.72-.74,3.46-.37,5.22.25,1.08.74,1.99,1.48,2.71.74.73,1.7,1.09,2.88,1.09,1.17.03,2.18-.32,3.02-1.07s1.53-1.59,2.09-2.55c.65-1.08,1.24-2.2,1.76-3.36.53-1.16,1.02-2.33,1.48-3.53.46-1.19.93-2.37,1.41-3.55.48-1.17,1.01-2.32,1.6-3.43.49-.93,1.05-1.89,1.67-2.88s1.32-1.9,2.11-2.74,1.65-1.54,2.6-2.11c.94-.57,2-.9,3.18-1,.43-.03.87-.02,1.32.05.45.06.87.2,1.28.42.09.06.14.14.14.23s-.05.17-.14.23l-.04.03h0Z"/><path class="cls-1" d="M194.51,23.65c.09-.25.22-.41.39-.49s.32-.09.44-.05c.12.05.22.15.3.32s.07.38-.02.63c-.87,2.32-2.05,4.17-3.55,5.57-1.5,1.39-3.08,2.09-4.75,2.09-1.18,0-2.09-.29-2.74-.86-.65-.57-1-1.48-1.07-2.71-.71.9-1.56,1.72-2.55,2.46s-2.13,1.11-3.43,1.11-2.42-.46-3.18-1.39-1.2-2.09-1.32-3.48c-.12-1.39.06-2.9.56-4.52s1.3-3.13,2.41-4.52,2.54-2.55,4.29-3.48c1.75-.93,3.83-1.39,6.24-1.39,1.67,0,2.98.22,3.92.67s1.71,1.14,2.3,2.06c-.62,1.86-1.19,3.53-1.72,5.01-.22.65-.43,1.29-.65,1.92-.22.63-.42,1.21-.6,1.74-.19.53-.35.98-.49,1.37-.14.39-.22.64-.25.77-.4,1.11-.55,1.91-.44,2.39s.36.72.77.72c.25,0,.58-.1,1-.3.42-.2.86-.53,1.32-1,.46-.46.94-1.07,1.44-1.83.49-.76.96-1.69,1.39-2.81h0ZM187.42,15.02c-.06-.15-.2-.32-.42-.51-.22-.19-.54-.28-.97-.28-.9,0-1.76.38-2.57,1.14-.82.76-1.57,1.71-2.25,2.85s-1.26,2.39-1.74,3.73-.81,2.59-1,3.73-.22,2.1-.09,2.85c.12.76.46,1.14,1.02,1.14.37,0,.73-.11,1.09-.32.36-.22.7-.51,1.02-.88.32-.37.64-.8.95-1.28.31-.48.59-.97.83-1.46.59-1.14,1.16-2.46,1.72-3.94,0,0,2.41-6.77,2.41-6.77Z"/><path class="cls-1" d="M207.22,12.93c1.05.06,1.92.36,2.62.9s1.19,1.25,1.48,2.13.38,1.91.26,3.08c-.12,1.18-.48,2.43-1.07,3.76-.8,1.86-1.75,3.36-2.83,4.52s-2.18,2.07-3.29,2.74-2.17,1.11-3.15,1.35c-.99.23-1.81.35-2.46.35s-1.25-.08-1.88-.25-1.21-.42-1.74-.74-.99-.72-1.39-1.18c-.4-.46-.67-.99-.79-1.58l4.08-11.8c.65-2.01,1.41-3.99,2.27-5.95.87-1.95,1.84-3.68,2.92-5.2,1.08-1.52,2.26-2.74,3.52-3.67s2.61-1.39,4.04-1.39,2.26.4,2.69,1.19c.43.79.5,1.81.19,3.05-.31,1.24-.94,2.63-1.9,4.17-.96,1.54-2.15,3.05-3.57,4.54v-.02h0ZM205.14,22.39c.9-2.23,1.37-4.05,1.42-5.47s-.42-2.13-1.42-2.13c-.53,0-1.1.33-1.72,1-.62.67-1.28,1.62-1.97,2.88-.7,1.25-1.42,2.78-2.16,4.57s-1.5,3.8-2.27,6.03c.43.68.97,1.01,1.62.97.65-.03,1.34-.36,2.09-1,.74-.63,1.5-1.53,2.27-2.69s1.48-2.54,2.13-4.15h.01ZM209.36,1.29c-.5,0-1.01.32-1.55.95-.54.63-1.11,1.55-1.72,2.74-.6,1.19-1.23,2.62-1.88,4.29-.65,1.67-1.32,3.54-2,5.61-.06.28-.16.53-.28.74.96-.83,1.86-1.77,2.69-2.81.83-1.04,1.58-2.08,2.25-3.13.66-1.05,1.24-2.09,1.72-3.11.48-1.02.83-1.92,1.07-2.69.23-.77.33-1.4.3-1.88s-.23-.72-.6-.72h0Z"/><path class="cls-1" d="M226.38,1.06c-1.58,4.58-2.98,8.69-4.22,12.34-.53,1.55-1.05,3.08-1.58,4.59-.53,1.52-1,2.88-1.41,4.1-.42,1.22-.77,2.23-1.04,3.01-.28.79-.43,1.25-.46,1.37-.4,1.11-.55,1.91-.44,2.39s.36.72.76.72c.25,0,.58-.1,1-.3.42-.2.86-.53,1.32-1,.46-.46.94-1.07,1.44-1.83.49-.76.96-1.69,1.39-2.81.09-.25.22-.41.37-.49.16-.08.3-.09.44-.05.14.05.24.15.3.32s.05.38-.05.63c-.87,2.32-2.04,4.17-3.53,5.57-1.48,1.39-3.08,2.09-4.78,2.09-.83,0-1.55-.15-2.13-.46-.59-.31-1.02-.79-1.3-1.44s-.39-1.48-.32-2.48c.06-1,.32-2.19.79-3.55l6.35-18.37c.53-1.58,1.24-2.7,2.13-3.36.9-.66,2.18-1,3.85-1h1.12Z"/><path class="cls-1" d="M235.79,12.79c2.01.15,3.52.75,4.52,1.79s1.59,2.29,1.76,3.76-.03,3.03-.6,4.69c-.57,1.65-1.43,3.16-2.57,4.52-1.14,1.36-2.54,2.47-4.2,3.32s-3.47,1.2-5.45,1.04c-1.98-.12-3.46-.71-4.45-1.76-.99-1.05-1.58-2.31-1.76-3.78-.19-1.47,0-3.03.58-4.68.57-1.65,1.42-3.16,2.55-4.52,1.13-1.36,2.52-2.47,4.17-3.32,1.65-.85,3.47-1.2,5.45-1.04,0,0,0-.02,0-.02ZM231.2,30.51c.83-.09,1.59-.56,2.27-1.41.68-.85,1.25-1.89,1.72-3.11.46-1.22.81-2.54,1.04-3.94.23-1.41.31-2.71.23-3.9s-.33-2.16-.77-2.92c-.43-.76-1.07-1.11-1.9-1.04-.83.06-1.59.52-2.27,1.37-.68.85-1.25,1.89-1.72,3.13-.46,1.24-.81,2.56-1.04,3.97s-.3,2.71-.21,3.9c.09,1.19.35,2.17.77,2.92.42.76,1.04,1.11,1.88,1.04h0Z"/></svg>